<svg width="183.18278163869587" height="187.47750854492188" viewBox="0 0 335.8753894108506 343.74999999999994"
    class="css-1j8o68f">
    <defs id="SvgjsDefs2831"></defs>
    <g id="SvgjsG2832" featurekey="rootContainer"
        transform="matrix(3.247850666917329,0,0,3.247850666917329,-0.4022202286210541,0.1273814704346421)"
        fill="#111111">
        <g xmlns="http://www.w3.org/2000/svg">
            <path
                d="M40.7 103.4a3 3 0 0 0-1.9-.4c.3.8-.2.8-.7.7s-1-.6-1.5 0 2 .4 3 .8a.9.9 0 0 0 1.1 0 3.7 3.7 0 0 0 0-1.1zM11.9 87c-.7-.2-1.1-.6-1.7-.8s-.5-.7-.8-1.1H9a2 2 0 0 0 1.1 1.6 4.7 4.7 0 0 0 1.5 1.8c0-.5 1.8-1.2.3-1.5zm3.5 4.5a2.4 2.4 0 0 1-1.1-1.1.2.2 0 0 0-.4 0l-.4.4 2.2 1.9V92zm-7.5-8.6h-.8l1.1 1.5a.8.8 0 0 0 .4-.7.3.3 0 0 0 .1-.4 1 1 0 0 0-.8-.4zm2.4-62.1c0-.4.1-.8-.6-.7h-.3L9 21.6c.7.2 1.1-.2 1.3-.8zm17.8 79.3v.7h.7c.2 0 .6-.1.5-.3s-.8-.4-1.2-.4z">
            </path>
            <path
                d="M103.4 57.2v-2.3c0-1.2.5-2.5-.4-3.7v-.4a6 6 0 0 0 0-4.2l-.2-1.4-.3-1.6v-.8c-.2-1 .1-2.1-1.1-2.7a.2.2 0 0 0 0-.2v-1.1a3.7 3.7 0 0 0-.8-1.9c-.2-.7-.2-1.4-.7-2v-.6l-.4-1.2c-.2-.5-.2-1.1-.7-1.5l-3-5.9h-.3V25l-1-.9c-1.1-1.7-2-3.6-3.4-5.1l-.4-.8-.8-.3-.7-.8-3.2-3.7h-.4c-.1-.3-.4-.3-.7-.3a4 4 0 0 0-2.7-1.9c-.3-1.4-1.5-1.7-2.6-2.2l-.3-.3a2.1 2.1 0 0 0-1.5-.8l-.4-.7h-.7l-3.5-2.1C72 5 71 4.1 69.8 3.7h-.7A1 1 0 0 0 68 3l-1.8-.5-1.5-.6-.8-.4h-.7l-1.5-.3a1.1 1.1 0 0 0-1.1.3c-.1-.7-.7-.7-1.2-.8h-.7l-1 .3c-.5-1.2-1.6-.5-2.4-.7L53.5 0h-.4c-1.1.1-2.3-.3-3.4.3h-4.5l-.4.4h-2.2l-1.9.3c-.8.2-1.6.1-2.3.7a3.7 3.7 0 0 1-2.6.1l-1.1.6h-.4l-.3.2a2 2 0 0 0-1.4.7h-.1l-.9.4h-.1c-.3-.1-.6.2-.9.1l-.3.4-.8.6c-.2-.3-.4-.2-.7-.2v.7a1.8 1.8 0 0 0-1.9.4h-.7l-1.2 1h.2l-.8.8H24a2.5 2.5 0 0 0-1.9 1.4c-.6.5-1.5.6-1.9 1.4h-.3v.4a2 2 0 0 0-1.6 1.1 2.3 2.3 0 0 0-1.1 1.2 1.7 1.7 0 0 0-1.5 1.1 4.5 4.5 0 0 0-1.9 1.9l-.3.4c.2.4.9.4 1.4.5a50.9 50.9 0 0 0 28.6 86.2.8.8 0 0 0 .7.3h.7a51.3 51.3 0 0 0 6 .4h.8a1.4 1.4 0 0 1 .1.6c-1.5.9-3.1-1.4-4.6.1.3.3.8.3.8.9l4.8.4H54a2 2 0 0 1 0-.3 3.4 3.4 0 0 0 1.8-.5c.6-.1 1.2 1 1.7-.1.9 0 1.9.4 2.6-.7h.1c.9 0 1.9.6 2.6-.4l2.6-.3.4.2 2.3-1.3h1c.6.2 1-.2 1.3-.7s2.1-1 3.3-1a3 3 0 0 0 2.7-1.2l2.6-1.7c.7.1.9-.7 1.4-.8s.9-.8 1.5-1.1l.3-.3h.1c.4.1.6-.2.7-.5l.4-.4 2.3-2.6 1.1-1.1.7-.4c.6.1.7-.6 1.1-.8l.9-1.1.6-.4a1.9 1.9 0 0 0 1.3-1.3v-.2a1.8 1.8 0 0 0 .5-.7h.2a1.5 1.5 0 0 0 .5-.5c-.1-.9 1.1-1.1 1.1-2l.9-1.4a1.9 1.9 0 0 0 1.2-1.7c.2-.5.8-.7.6-1.4l.8-.8v-.9c.3 0 .5-.3.7-.5l.4-.7.7-1.6.4-1 .8-1.8.3-.4.2-1.1.5-1.4a1.2 1.2 0 0 0 .3-1.2c.5-.2.3-.7.5-1.1a.5.5 0 0 1 0-.4V65c.5-.5.4-1.1.4-1.7v-.5c.6-.9.2-2.1.6-3s-.3-.6.1-.8h.3v-1h-.1zm-2.9-19.5zM82.2 11.9zM65.8 3zm0 0zM56.4.8zm.1 103zm39.9-24.9zM102 62z">
            </path>
        </g>
    </g>
    <g id="SvgjsG2833" featurekey="symbolFeature-0"
        transform="matrix(0.9154775560991661,0,0,0.9154775560991661,122.22791198327832,42.27237259305131)"
        fill="#ffffff">
        <g xmlns="http://www.w3.org/2000/svg">
            <path
                d="M93.657,49.634c-0.009-0.339-0.188-0.652-0.479-0.829c-0.289-0.177-0.649-0.194-0.956-0.048   c-0.854,0.412-1.732,0.62-2.613,0.62c-3.332,0-6.043-2.711-6.043-6.043c0-0.851,0.188-1.692,0.558-2.501   c0.132-0.289,0.119-0.623-0.034-0.901c-0.154-0.277-0.431-0.466-0.745-0.507c-2.999-0.392-5.261-2.953-5.261-5.959   c0-0.183,0.08-0.748,0.08-0.748c0.047-0.372-0.118-0.738-0.428-0.949c-0.31-0.212-0.711-0.232-1.04-0.055   c-0.922,0.499-1.881,0.751-2.852,0.751c-3.332,0-6.042-2.711-6.042-6.043c0-0.878,0.205-1.75,0.608-2.592   c0.144-0.299,0.13-0.65-0.037-0.937c-0.168-0.287-0.466-0.471-0.797-0.494c0,0-1.397-0.097-1.957-0.097   c-6.405,0-12.313,2.161-17.042,5.786c-4.661-4.22-10.65-6.539-16.968-6.539c-13.953,0-25.304,11.352-25.304,25.304   s11.352,25.304,25.304,25.304c4.508,0,8.897-1.205,12.76-3.468c5.152,5.97,12.764,9.759,21.249,9.759   c15.479,0,28.073-12.594,28.073-28.073C93.693,50.219,93.659,49.726,93.657,49.634z M31.611,70.159   c-12.85,0-23.304-10.454-23.304-23.304s10.454-23.304,23.304-23.304c5.718,0,11.132,2.081,15.392,5.84   c-5.794,5.146-9.455,12.645-9.455,20.986c0,6.269,2.066,12.064,5.553,16.742C39.607,69.104,35.662,70.159,31.611,70.159z    M65.62,76.45c-14.377,0-26.073-11.696-26.073-26.073c0-14.377,11.696-26.073,26.073-26.073c0.159,0,0.318,0.003,0.477,0.009   c-0.195,0.693-0.294,1.398-0.294,2.11c0,4.435,3.607,8.043,8.042,8.043c0.767,0,1.524-0.115,2.267-0.343   c0.273,3.309,2.598,6.109,5.765,7.032c-0.206,0.713-0.31,1.442-0.31,2.179c0,4.435,3.608,8.043,8.043,8.043   c0.698,0,1.392-0.096,2.074-0.286C91.305,65.14,79.758,76.45,65.62,76.45z">
            </path>
            <circle cx="18.473" cy="34.61" r="1.923"></circle>
            <circle cx="18.473" cy="54.53" r="1.923"></circle>
            <circle cx="29.087" cy="44.932" r="1.923"></circle>
            <circle cx="59.083" cy="30.765" r="1.923"></circle>
            <circle cx="48.517" cy="46.855" r="1.923"></circle>
            <circle cx="74.359" cy="46.855" r="1.923"></circle>
            <circle cx="61.006" cy="53.223" r="1.923"></circle>
            <circle cx="78.311" cy="63.083" r="1.923"></circle>
            <circle cx="59.083" cy="65.006" r="1.923"></circle>
            <circle cx="34.164" cy="64.067" r="1.923"></circle>
            <circle cx="32.933" cy="32.688" r="1.923"></circle>
            <path
                d="M13.454,46.764c-0.354-0.425-0.985-0.482-1.408-0.129c-0.425,0.354-0.482,0.984-0.129,1.408l0.667,0.802   c0.198,0.238,0.482,0.36,0.769,0.36c0.226,0,0.453-0.076,0.639-0.231c0.425-0.354,0.482-0.984,0.129-1.408L13.454,46.764z">
            </path>
            <path
                d="M26.42,28.254l-0.894-0.538c-0.472-0.287-1.087-0.133-1.372,0.341c-0.285,0.473-0.132,1.087,0.34,1.372l0.894,0.538   c0.161,0.098,0.339,0.144,0.515,0.144c0.339,0,0.67-0.172,0.857-0.484C27.046,29.154,26.893,28.539,26.42,28.254z">
            </path>
            <path
                d="M38.243,30.221c0.151,0.4,0.532,0.647,0.936,0.647c0.118,0,0.237-0.021,0.353-0.065c0.517-0.195,0.777-0.772,0.583-1.289   l-0.368-0.976c-0.195-0.517-0.774-0.777-1.289-0.583c-0.517,0.195-0.777,0.772-0.583,1.289L38.243,30.221z">
            </path>
            <path
                d="M22.003,39.87c-0.463-0.299-1.083-0.166-1.382,0.298l-0.565,0.876c-0.299,0.464-0.166,1.083,0.298,1.382   c0.167,0.108,0.355,0.16,0.541,0.16c0.329,0,0.65-0.162,0.841-0.458l0.565-0.876C22.601,40.788,22.468,40.169,22.003,39.87z">
            </path>
            <path
                d="M32.769,40.632c-0.285,0.473-0.132,1.087,0.34,1.372l0.894,0.538c0.161,0.098,0.339,0.144,0.515,0.144   c0.339,0,0.67-0.172,0.857-0.484c0.285-0.473,0.132-1.087-0.34-1.372l-0.894-0.538C33.668,40.005,33.053,40.158,32.769,40.632z">
            </path>
            <path
                d="M34.732,52.81c-0.248-0.494-0.848-0.694-1.342-0.447c-0.494,0.247-0.694,0.849-0.446,1.342l0.467,0.933   c0.175,0.351,0.528,0.553,0.895,0.553c0.15,0,0.303-0.034,0.447-0.105c0.494-0.247,0.694-0.849,0.446-1.342L34.732,52.81z">
            </path>
            <path
                d="M48.34,57.871c-0.512-0.209-1.094,0.043-1.3,0.556l-0.388,0.968c-0.206,0.513,0.043,1.095,0.556,1.3   c0.122,0.05,0.248,0.072,0.372,0.072c0.396,0,0.772-0.237,0.929-0.628l0.388-0.968C49.102,58.658,48.853,58.076,48.34,57.871z">
            </path>
            <path
                d="M59.496,40.083c-0.378-0.401-1.011-0.42-1.413-0.041c-0.401,0.379-0.42,1.012-0.04,1.414l0.716,0.758   c0.196,0.208,0.461,0.313,0.727,0.313c0.246,0,0.493-0.09,0.687-0.273c0.401-0.379,0.42-1.012,0.04-1.414L59.496,40.083z">
            </path>
            <path
                d="M71.188,55.353l-0.795,0.677c-0.42,0.358-0.471,0.989-0.113,1.41c0.198,0.232,0.479,0.352,0.762,0.352   c0.229,0,0.46-0.078,0.648-0.238l0.795-0.677c0.42-0.358,0.471-0.989,0.113-1.41C72.238,55.045,71.608,54.996,71.188,55.353z">
            </path>
            <path
                d="M67.342,70.51c-0.549,0.063-0.942,0.558-0.88,1.106l0.118,1.037c0.058,0.51,0.49,0.887,0.992,0.887   c0.037,0,0.076-0.002,0.114-0.007c0.549-0.063,0.942-0.558,0.88-1.106l-0.118-1.037C68.387,70.842,67.894,70.44,67.342,70.51z">
            </path>
            <path
                d="M83.597,54.937c-0.549,0.053-0.952,0.542-0.898,1.092l0.101,1.04c0.05,0.517,0.485,0.903,0.994,0.903   c0.032,0,0.064-0.002,0.098-0.005c0.549-0.053,0.952-0.542,0.898-1.092l-0.101-1.04C84.636,55.285,84.159,54.887,83.597,54.937z">
            </path>
            <path
                d="M70.777,41.369c0.175,0.351,0.528,0.553,0.896,0.553c0.15,0,0.303-0.034,0.446-0.105c0.494-0.247,0.694-0.847,0.447-1.341   l-0.466-0.933c-0.247-0.494-0.848-0.695-1.342-0.448c-0.494,0.247-0.694,0.847-0.447,1.341L70.777,41.369z">
            </path>
            <path
                d="M47.464,41.386l0.491-0.92c0.26-0.488,0.076-1.093-0.412-1.353c-0.489-0.262-1.094-0.076-1.353,0.412l-0.491,0.92   c-0.26,0.488-0.076,1.093,0.412,1.353c0.15,0.08,0.311,0.118,0.47,0.118C46.938,41.915,47.285,41.723,47.464,41.386z">
            </path>
            <path
                d="M24.394,59.544l-1.034-0.139c-0.544-0.068-1.051,0.312-1.124,0.858s0.311,1.051,0.858,1.124l1.034,0.139   c0.045,0.006,0.09,0.009,0.134,0.009c0.493,0,0.922-0.365,0.99-0.867C25.325,60.121,24.941,59.617,24.394,59.544z">
            </path>
        </g>
    </g>
    <g id="SvgjsG2834" featurekey="nameFeature-0"
        transform="matrix(3.4597288376285635,0,0,3.4597288376285635,67.58482458367483,88.88513608930171)"
        fill="#ffffff">
        <path
            d="M10.56 25.68 c0.36 -0.68 0.6 -0.48 0.92 -0.92 c0 -0.32 0.4 -0.36 0.44 -0.52 c-0.04 0 -0.08 0.04 -0.08 0.08 c0 -0.76 0.92 -1.28 0.92 -2 c0 -0.2 -0.12 -0.36 -0.12 -0.56 l0 -0.2 c0.24 0 0.6 0.24 0.84 0.36 l0.04 -0.04 c0.12 0.28 0.48 0.2 0.68 0.4 l0.12 -0.04 l0.28 0.64 c0 2.8 -3.08 5.32 -4.92 6.56 l0.04 -0.04 c-0.44 0.12 -1.4 0.96 -1.72 1.28 c-0.68 0.76 -3.08 2.4 -3.08 2.6 l0.96 0.48 l-0.12 0.08 c0.12 0 0.32 0.08 0.44 0.16 l0.12 -0.08 c0.88 0.32 2 0.56 2.76 1.12 c0.44 0.32 1.04 0.72 1.44 0.72 c0.56 0.32 2.64 1.56 2.64 2.28 c0 0.08 -0.24 0.12 -0.28 0.12 c-0.12 0 -0.2 -0.08 -0.24 -0.16 l-0.32 0.2 c-0.08 -0.12 -0.28 -0.28 -0.44 -0.28 l-0.12 0.08 c-0.6 -0.2 -1.8 -1.04 -2.28 -1.04 c-0.76 -0.6 -5.36 -1.68 -5.84 -2.32 l-0.08 -0.08 c-0.2 0 -1 2.64 -1.24 3.56 c-0.12 0.44 -0.2 1 -0.48 1.4 l-0.08 -0.04 c0 0.56 -0.48 1.2 -0.56 1.2 l-0.04 0.04 l0 -0.28 l-0.04 -0.12 c-0.16 0.12 -0.16 0.32 -0.16 0.44 c0 0 -0.04 -0.04 -0.08 -0.04 c-0.16 0 -0.32 1.04 -0.36 1.2 c0 0.04 0.04 0.08 0.04 0.12 s-0.04 0.12 -0.08 0.12 c-0.04 -0.08 -0.08 -0.28 -0.2 -0.32 l0 0.16 c-0.12 0 -0.16 -0.12 -0.16 -0.2 c0 -0.12 0.04 -0.24 0.04 -0.32 c0 -0.12 -0.04 -0.28 -0.04 -0.44 c0.16 -0.16 0.16 -0.32 0.16 -0.48 l0 -0.24 c0.36 -1 0.12 -2.12 0.64 -3.08 c0.32 -1.92 0.92 -3.88 1.44 -5.8 l0.16 0.08 l0.08 -0.08 c-0.08 -0.04 -0.08 -0.16 -0.08 -0.24 c0 -0.24 0.28 -0.72 0.28 -0.8 l-0.04 -0.12 c0.16 -0.28 0.28 -0.32 0.28 -0.64 l-0.08 0.2 c-0.04 -0.04 -0.04 -0.12 -0.04 -0.16 c0 -0.16 0.2 -0.32 0.2 -0.52 l-0.04 -0.08 l0.16 -0.04 l-0.08 -0.2 c0.04 -0.08 0.4 -1.56 0.6 -2.2 l0.08 -0.04 c0 -0.04 -0.04 -0.08 -0.04 -0.12 c0 -1.24 0.88 -2.36 0.96 -3.44 c0.16 -0.08 0.24 -0.88 0.36 -1.04 c-0.12 0.08 -0.68 0.92 -0.76 0.92 c-0.16 -0.08 -0.28 -0.32 -0.28 -0.48 c0 -1 1.16 -2.04 1.16 -2.48 c0.16 -0.16 0.12 -0.6 0.48 -0.6 l0.16 0.12 l0.16 -0.04 c0.2 0 0.52 0.12 0.64 0.32 l0.12 -0.16 c0.32 0.64 0.48 0.72 0.48 1.52 c0 0.52 -0.16 1.04 -0.32 1.52 l-0.24 0.68 c0 0.8 -0.84 2.44 -0.68 2.36 c0 0.08 0.04 0.16 0.04 0.24 c0 0.8 -1.12 3.68 -1.32 4.84 l0.04 0.04 c0.44 0 0.48 -0.56 0.92 -0.56 l0 0.04 l0 0 c0 -0.12 3.56 -3.24 4.84 -4.6 z M6.8 29.36 l0.08 0.04 c0.2 0 0.32 -0.2 0.32 -0.36 l0 -0.04 c-0.16 0.08 -0.24 0.2 -0.4 0.36 z M6.24 29.92 l-0.04 0 c-0.12 0 -0.16 0.08 -0.16 0.2 l0.04 0 z M10.92 25.560000000000002 l0.08 -0.16 l0 0 l0 -0.04 l-0.16 0.16 z M8.32 28.240000000000002 l0.08 -0.16 c-0.04 0 -0.12 0.08 -0.2 0.16 l0.12 0 z M7.48 28.84 l0.08 0.04 l0.04 -0.08 c0 -0.04 -0.04 -0.08 -0.08 -0.08 s-0.04 0.08 -0.04 0.12 z M12.08 24.08 c0.12 0 0.16 -0.04 0.16 -0.12 l-0.04 0 c-0.12 0 -0.12 0.04 -0.12 0.12 z M11.92 24.68 l-0.04 -0.12 l-0.04 0 l0 0.08 s0.08 0 0.08 0.04 z M11.6 24.68 l-0.08 0.12 l0.2 -0.08 c0 -0.04 -0.08 -0.04 -0.12 -0.04 z M10.64 25.72 l-0.08 -0.04 l0.08 0.16 l0 -0.12 z M10.52 26 l-0.04 0 l-0.08 0.08 c0.04 0 0.08 -0.08 0.12 -0.08 z M12.32 23.68 l0 0.04 l0.08 -0.04 l-0.04 -0.08 s-0.04 0.04 -0.04 0.08 z M1.16 38.8 l0 -0.08 l0 -0.08 l0 0.16 z M5.4 33.72 c0 -0.04 0 -0.04 0.08 -0.04 c-0.04 0 -0.08 0 -0.08 -0.04 l-0.04 0.04 s0.04 0 0.04 0.04 z M4.68 31 l0 0.04 l0.04 0 l0 -0.04 l0 -0.04 c-0.04 0 -0.04 0 -0.04 0.04 z M7.96 28.48 c-0.08 0 -0.08 0 -0.08 0.04 l0.04 0.04 c0 -0.04 0 -0.04 0.04 -0.08 z M11.52 24.8 c0 0 -0.04 0.04 -0.04 0.08 l0.04 -0.04 l0 -0.04 z M2.2 32.32 l0 0.08 l0 -0.16 l0 0.08 z M13.632000000000001 37.12 l-0.08 -0.28 c0.28 -0.52 0.28 -1.12 0.48 -1.68 c0.36 -0.24 0.32 -0.8 0.44 -1.16 c0.24 -0.48 0.72 -0.96 0.88 -1.44 l0 0.08 l0.2 -0.28 c0 -0.44 0.6 -0.72 0.6 -0.88 c0 -0.36 -1.08 -1.4 -1.24 -1.8 c-0.16 -0.44 -0.28 -0.96 -0.48 -1.4 c0 -0.04 0.04 -0.04 0.04 -0.08 c0 -0.24 -0.12 -0.44 -0.12 -0.68 c0 -0.64 0.64 -1.2 1.48 -1.2 c0.24 0 0.48 0.08 0.72 0.12 c0.04 0 0.08 -0.04 0.16 -0.04 c1.48 0 2.24 1.44 2.64 1.44 c0.48 0 0.92 -0.08 1.48 -0.08 c0.32 0 1 0.16 1 0.56 c0 1.2 -1.4 1.36 -1.4 1.68 c0.04 0.12 0.04 0.2 0.04 0.32 l0 0.16 c0.6 0.4 0.88 1.24 0.88 1.88 l0 0.2 l0.16 -0.16 c0.28 0 0.28 1.04 0.28 1.24 l0 0.08 c-0.56 2.84 -2.52 5.88 -5.12 5.88 c-0.64 0 -1.68 0 -2.12 -0.48 c-0.44 -0.44 -0.96 -1 -0.96 -1.64 c0 -0.12 0 -0.24 0.04 -0.36 z M19.832 32.72 l-0.08 -0.12 l-0.04 0.04 c-0.12 -0.44 -0.32 -0.88 -0.48 -1.32 l-0.28 -0.64 l-0.08 -0.08 l0.04 -0.04 c-0.16 0 -1.12 1.92 -1.44 2.2 l-0.08 -0.2 l-0.28 0.48 s-0.04 0.2 -0.08 0.2 l0 -0.04 l-0.08 0.12 l0.04 0.04 c0 0.12 -0.24 0.16 -0.32 0.28 c0 0.04 0.04 0.12 0.04 0.2 c0 0.48 -0.52 1.48 -0.84 1.96 l-0.28 0.6 c0 0.16 0.08 0.32 0.08 0.48 c0 0.36 -0.32 0.48 -0.32 0.56 l0.2 0.2 c0 0.12 -0.08 0.28 -0.16 0.36 c0 0.32 0.04 0.64 0.48 0.64 c0.24 0 1.64 -0.8 1.84 -0.96 c1.12 -1.08 2.04 -2.6 2.04 -4.08 c0 -0.24 0.28 -0.52 0.28 -0.76 c0 -0.12 -0.04 -0.24 -0.04 -0.32 c-0.04 0.04 -0.08 0.16 -0.16 0.2 z M16.272000000000002 27.119999999999997 c-0.56 0 -0.84 1.28 -0.84 1.64 c0 0.8 0.4 1.88 0.84 2.32 c0.64 -0.32 0.84 -1.6 1.12 -1.6 c0.12 -0.08 0.48 -0.64 0.48 -0.8 c0 -0.64 -1.32 -1.56 -1.6 -1.56 z M18.952 36.44 l0.04 0.04 l-0.12 0.08 l0.08 0.04 c0.6 0 0.72 -0.68 0.8 -0.68 l0 0.04 c0 -0.2 0.72 -0.84 0.8 -1.48 c0.04 -0.32 0.04 -0.68 0.28 -0.96 l-0.12 -0.04 c0 0.2 -0.44 0.56 -0.56 0.72 c-0.44 0.52 -0.6 1.56 -1.2 2.24 z M14.032000000000002 36.44 l0 0.24 l0.04 0.04 c0.44 -1.16 0.92 -2.8 1.64 -3.8 c-1 1.4 -1.2 2.84 -1.68 3.52 z M15.272000000000002 34.64 l0.04 0 c-0.36 0 -0.44 0.88 -0.64 1.12 l0.04 0.04 c0.2 -0.36 0.4 -0.76 0.56 -1.16 z M19.352 30.8 l0 0.08 c0 0.08 0 0.24 0.08 0.24 c0 -0.8 -0.24 -0.64 -0.28 -0.76 l-0.04 0.04 c0.04 0.16 0.12 0.32 0.24 0.4 z M19.712000000000003 31.759999999999998 c0 0 -0.04 0.08 -0.04 0.12 c0 0.16 0.08 0.28 0.12 0.44 c-0.04 0.04 -0.04 0.04 -0.04 0.08 l0.04 0 l0.16 -0.04 c-0.16 -0.36 -0.16 -0.68 -0.36 -0.92 c0 0.12 0 0.2 0.12 0.32 z M14.672 36.28 l-0.04 -0.16 c-0.16 0.12 -0.24 0.44 -0.24 0.6 l0.04 0.08 c0.04 -0.16 0.12 -0.36 0.24 -0.52 z M15.592000000000002 33.68 l0.04 0.08 c0.12 0 0.36 -0.56 0.4 -0.68 c-0.12 0.12 -0.44 0.56 -0.44 0.6 z M20.192 29.439999999999998 l0.08 -0.12 l-0.04 -0.16 c-0.08 0 -0.12 0.04 -0.12 0.12 s0 0.16 0.04 0.16 l0.04 0 z M16.512 31.84 l-0.04 -0.04 c-0.16 0.28 -0.28 0.52 -0.44 0.76 c0.28 -0.28 0.28 -0.4 0.48 -0.72 z M15.472000000000001 34.08 l0.08 -0.08 l0 -0.08 c0 0.2 -0.2 0.32 -0.28 0.48 c0.12 0 0.16 -0.24 0.2 -0.32 z M14.392000000000001 36.96 l-0.08 0.08 l0.04 0.16 c0.04 -0.08 0.04 -0.16 0.04 -0.24 z M17.192 30.8 l0.08 -0.08 l-0.08 -0.12 l0 0.2 z M16.712000000000003 31.52 l0 0.08 c0.04 -0.04 0.04 -0.12 0.12 -0.16 l-0.08 0 s-0.04 0.04 -0.04 0.08 z M16.472 32.480000000000004 l-0.04 0.08 l0.04 0.04 l0.08 -0.08 z M17.392000000000003 27.6 l-0.04 0 c0 0.04 0.08 0.12 0.12 0.12 c-0.04 -0.04 -0.08 -0.12 -0.08 -0.12 z M16.312 32.88 l0.08 -0.04 c0 -0.04 0 -0.12 -0.08 -0.12 l-0.08 0.04 z M20.792 31.72 l0.04 0.04 l0 -0.16 z M19.912000000000003 32.72 l0.04 0 l-0.04 0.12 l-0.08 -0.08 z M16.112000000000002 32.76 l0.08 -0.04 l-0.04 0 z M19.752000000000002 29.48 l0 -0.04 l0 0.12 l0 -0.08 z M17.832 28.08 c0 0.04 0 0.04 0.04 0.08 l0.04 -0.04 c0 -0.04 -0.04 -0.04 -0.08 -0.04 z M19.432000000000002 31.28 c0.08 0.04 0.08 0.04 0.12 0.04 l0 -0.04 l-0.12 0 z M19.832 32.72 c-0.04 0.04 -0.04 0.08 -0.04 0.12 l0.04 0.04 l0 -0.16 z M16.232000000000003 27.2 l0 0.04 c0 -0.04 0 -0.04 0.04 -0.04 l-0.04 0 z M36.824 19.36 c0 0.12 0.12 0.24 0.16 0.4 c0.12 -0.08 0.16 -0.24 0.16 -0.4 c0 -0.08 0 -0.16 -0.12 -0.16 c-0.04 0 -0.16 0.12 -0.2 0.16 c0.16 -0.32 0.24 -2.12 0.6 -2.12 c0.44 0 0.08 -0.44 0.4 -0.52 c-0.16 -0.04 -0.2 -0.16 -0.24 -0.28 c0.16 -0.76 0.68 -1.4 0.68 -2.04 c0 -0.08 -0.24 -0.32 -0.24 -0.56 c0 -0.2 0.28 -0.8 0.52 -0.8 s0.32 0.32 0.44 0.32 c0.04 -0.04 0.16 -0.12 0.24 -0.12 c0.16 0.08 0.28 0.28 0.4 0.4 c0.16 0 0.16 -0.36 0.28 -0.36 c0.44 0 0.2 0.32 0.36 0.32 c0 0 0.08 -0.08 0.08 -0.12 l0 -0.04 c0.12 0 0.36 0.24 0.6 0.24 c0.04 0 0.08 -0.04 0.08 -0.04 l0.16 0.04 l-0.08 0.2 c0.04 0.08 0.08 0.28 0.08 0.36 c0 0.2 -0.24 0.16 -0.24 0.36 c0 0.12 0.08 0.32 0.08 0.44 c0 0.2 -0.52 0.48 -0.56 0.96 c-0.12 0.32 -0.24 0.96 -0.52 1.2 c-0.32 0.32 -0.24 1.52 -0.68 2.24 l0 0.08 c0 0.08 -0.04 0.2 -0.08 0.28 l0.04 0.08 c-0.16 0.12 -0.24 0.36 -0.24 0.52 c0 0.08 0.04 0.2 0.04 0.32 c0 0.16 -0.04 0.24 -0.12 0.24 l-0.08 -0.04 c-0.08 0.2 -0.4 0.76 -0.4 0.92 c0 0.96 -0.56 1.44 -0.56 1.96 c0 0.12 0.04 0.24 0.04 0.32 c0 0.28 -0.24 0.44 -0.24 0.56 l0.04 0.16 c0 0.2 -0.56 1.64 -0.56 2 c0 0.12 0.04 0.24 0.04 0.36 c0 0.08 0 0.2 -0.04 0.32 l0 0.04 c0 0.24 -0.56 0.72 -0.56 1.28 l0.04 0.12 l-0.04 0.12 c0 0.12 0.08 0.28 0.08 0.4 c0 0.64 -0.64 0.68 -0.64 1.92 c0 0.2 0.08 0.4 0.08 0.64 c0 0.36 -0.36 0.8 -0.36 1.16 c0 0.08 0.12 0.16 0.16 0.16 c0 0.12 -0.12 0.16 -0.12 0.28 c0 0.04 0.04 0.16 0.08 0.2 c-0.08 0.24 -0.16 0.48 -0.16 0.72 c0 0.08 0.04 0.16 0.04 0.24 c0 0.52 -0.28 0.64 -0.28 0.8 s0.08 0.32 0.08 0.48 c0 0.08 -0.04 0.16 -0.16 0.32 c0 0.16 0.08 0.24 0.08 0.36 c0 0.16 -0.12 0.28 -0.12 0.4 c0 0.04 0.08 0.36 0.12 0.4 c-0.08 0.08 -0.08 0.16 -0.08 0.24 l0 0.2 c0 0.68 -0.16 1.28 -0.16 1.92 l0 0.48 s0 0.32 -0.2 0.48 l0.12 0.16 c-0.04 0.12 -0.04 0.64 -0.04 0.8 c0 0.04 0.04 0.12 0.12 0.16 c-0.08 0.04 -0.08 0.16 -0.08 0.2 c0 0.44 0.24 0.96 0.24 1.12 c0 0.12 -0.08 0.2 -0.08 0.28 c0 0.16 0.08 0.36 0.08 0.48 c-0.12 0.16 -0.36 0.32 -0.56 0.32 c-0.16 0 -0.28 -0.04 -0.32 -0.12 c-0.08 0.08 -0.12 0.08 -0.16 0.08 c-0.24 0 -0.4 -0.36 -0.64 -0.36 l-0.12 0.08 c-0.68 0 -0.8 -1.56 -0.8 -1.84 c0 -0.12 0.04 -0.44 0.12 -0.56 c0.04 0.2 0.36 0.28 0.36 0.48 s-0.08 0.48 -0.08 0.76 c0 0.2 0.04 0.36 0.16 0.48 l0.2 -0.04 c-0.08 -0.08 -0.16 -0.4 -0.16 -0.56 c0 0 0.08 -0.12 0.08 -0.16 c0 -0.16 -0.2 -0.56 -0.2 -0.8 c0 -0.36 0.12 -0.76 0.12 -1.12 c0 -0.2 -0.08 -0.4 -0.08 -0.6 c0 -0.32 0.24 -0.56 0.24 -0.88 l0.04 0 c0.08 0 0.16 0.4 0.16 0.68 c0 0.16 -0.04 0.24 -0.04 0.28 l0 1.24 c0.08 -0.24 0.24 -0.48 0.24 -0.72 l-0.12 -0.16 c0 -0.08 0.12 -0.16 0.12 -0.28 c-0.12 -0.04 -0.12 -0.12 -0.12 -0.2 c0 -0.32 0.2 -0.8 0.32 -0.96 c-0.08 -0.04 -0.16 -0.16 -0.16 -0.28 c0 -0.32 0.16 -0.68 0.2 -1 c-0.04 -0.16 -0.08 -0.32 -0.08 -0.48 c0 -0.08 0 -0.2 0.04 -0.32 c0 -0.16 0 -0.76 0.2 -0.84 c-0.08 -0.12 -0.12 -0.2 -0.12 -0.28 c0 -0.12 0 -0.24 0.12 -0.32 c0 -0.24 -0.08 -0.44 -0.08 -0.64 s0.08 -0.4 0.2 -0.68 l0.04 0.04 c0.12 0 0.16 -0.16 0.16 -0.28 s-0.16 -0.2 -0.16 -0.36 c0 -0.4 0.16 -0.84 0.4 -1.16 c0 -0.2 -0.04 -0.44 -0.04 -0.6 c0 -0.28 0.68 -1.84 0.68 -2.4 c0 -0.16 -0.12 -0.24 -0.28 -0.32 c-0.2 0 -0.32 0.52 -0.36 0.64 l0 0.08 c0 0.28 -0.4 0.84 -0.4 1.28 c0 0.08 0.12 0.16 0.12 0.24 c-0.04 0.12 -0.16 0.4 -0.28 0.4 l-0.12 -0.12 c0 -0.2 0.12 -0.6 0.2 -0.76 l-0.08 -0.16 c-0.08 0.12 -0.28 0.32 -0.28 0.44 c0 0.04 0.08 0.04 0.08 0.08 c-0.04 0.08 -0.16 0.12 -0.16 0.24 c0 0.04 0.04 0.12 0.04 0.16 s-0.04 0.08 -0.08 0.16 l0.16 0.36 c0.08 -0.08 0.12 -0.16 0.24 -0.16 l0 0.16 c0 0.08 0.04 0.16 0.08 0.24 c0 0.08 -0.08 0.16 -0.2 0.16 c-0.04 -0.08 -0.08 -0.2 -0.16 -0.24 c0 0.12 -0.08 0.2 -0.28 0.28 l-0.24 -0.2 c0.04 -0.08 0.04 -0.08 0.04 -0.12 c0 -0.12 -0.12 -0.12 -0.12 -0.28 l0.04 0 l-0.04 -0.04 l0.08 -0.12 l-0.2 -0.28 l-0.08 0.12 c0 0.12 0.04 0.24 0.2 0.32 c-0.56 0.36 -1.04 0.88 -1.36 1.36 l0 -0.04 c-0.24 0 -0.4 1.08 -0.8 1.08 c-0.08 0 -0.16 -0.04 -0.2 -0.04 l-0.16 0.12 c-0.32 0.08 -0.84 0.56 -0.96 0.56 c-0.6 1.04 -1.52 1.72 -2.16 2.6 l0 0.08 c0 -0.04 -0.12 0.04 -0.2 0.08 l-0.32 0.24 c-0.36 0.2 -0.84 0.48 -1.28 0.48 c-2.24 0 -1.72 -0.2 -2.8 -1.72 c0.12 -0.24 0.2 -1.44 0.4 -1.52 c0.12 0.04 0.16 0.04 0.2 0.04 c0.64 0 0.6 -1.44 1 -1.84 c0 -0.24 -0.36 -0.24 -0.36 -0.52 l0 0 c0 -0.52 0.96 -1.2 1.24 -2.36 c0.12 -0.64 1.12 -1.96 1.64 -2.44 c0.24 -0.76 1.16 -0.8 1.96 -0.8 l0.48 0 c0.72 0 1.56 0.16 1.72 0.84 l-0.04 0.04 c0 0.16 0.24 0.24 0.24 0.4 c0 0.48 0.12 0.96 0.12 1.44 c0 0.64 -1.12 1.16 -1.72 1.16 c-0.16 0 -0.32 -0.04 -0.36 -0.2 c0.2 -0.08 0.2 -0.24 0.2 -0.48 l0 -0.2 c0 -0.12 0 -0.2 0.04 -0.28 c-0.04 -0.24 -0.2 -0.48 -0.28 -0.64 c-0.12 0 -0.2 0.04 -0.32 0.12 l0 0.04 l-0.24 0.32 c-0.36 0.48 -0.48 1.4 -1.12 1.76 l-0.04 0.12 l-0.56 0.72 c0 0.52 -0.84 1.32 -0.84 1.72 l0 0.16 c-0.16 0.36 -0.28 0.6 -0.56 0.88 l0.2 0.12 c0 0.28 -0.2 0.64 -0.36 0.92 c0.04 0.04 0.12 0.16 0.2 0.2 c0.16 -0.2 0.4 -0.28 0.68 -0.28 l0.12 0.08 c0 0.08 -0.12 0.12 -0.16 0.12 l-0.12 0 c0.08 0.12 0.36 0.16 0.44 0.16 c0 0 0.24 -0.2 0.28 -0.24 c0 -0.04 0 -0.12 -0.12 -0.12 c-0.04 0 -0.08 0.04 -0.12 0.04 l0 -0.16 c0 -0.24 0.04 -0.32 0.28 -0.52 l0.08 0.08 l-0.08 0.2 l0.68 -0.28 c-0.04 -0.04 -0.04 -0.08 -0.04 -0.08 c0 -0.12 0.2 -0.12 0.2 -0.2 l-0.2 -0.16 c0 -0.08 0.04 -0.12 0.12 -0.12 c0.64 0 0.4 -1.2 1.24 -1.2 l0.04 0.04 l-0.04 0.2 l0.04 0.04 c0.04 0 1.44 -1.32 1.52 -1.48 c0.36 0 0.24 -0.88 1.12 -1.12 c0.2 -0.32 0.8 -0.48 0.8 -0.96 c0 -0.2 0.72 -0.32 0.72 -0.8 c0 -0.04 -0.08 -0.28 -0.08 -0.44 s0.08 -0.32 0.24 -0.32 c0.08 0.04 0.08 0.12 0.08 0.16 c0.32 -0.12 0.24 -0.28 0.36 -0.48 c-0.12 -0.2 -0.36 -0.48 -0.36 -0.68 c0 -0.16 0 -0.4 0.24 -0.4 l0.12 0.08 c-0.08 0.12 -0.08 0.24 -0.08 0.32 l0.08 0.16 l0.24 -0.08 c-0.04 -0.08 -0.16 -0.16 -0.16 -0.24 c0 -0.72 0.76 -1.48 0.76 -2.24 l0 -0.16 c0.24 0.04 0.56 0.08 0.72 0.32 c-0.04 0 -0.04 0.08 -0.04 0.12 s0.04 0.12 0.08 0.12 l0.04 0 c0.08 0 0.16 -0.12 0.2 -0.2 c0 -0.32 -0.4 -0.2 -0.4 -0.52 c0 -0.04 0.08 -0.16 0.08 -0.2 l-0.12 -0.12 c0 0.08 -0.04 0.16 -0.16 0.16 c-0.08 0 -0.24 -0.08 -0.28 -0.16 l0.12 -0.28 c0.12 0 0.2 0.08 0.32 0.08 c0.04 -0.04 0.16 -0.12 0.16 -0.16 c0 -0.12 -0.12 -0.12 -0.2 -0.12 l-0.12 0 c-0.08 0 -0.16 0 -0.16 -0.04 c0 -0.08 0.08 -0.12 0.16 -0.12 c0.04 0 0.32 0.04 0.4 0.08 l0.08 -0.08 c0 -0.12 -0.52 -0.24 -0.52 -0.48 c0 -0.32 0.16 -0.56 0.32 -0.84 l0 -0.28 c0 -0.04 0 -0.12 0.08 -0.32 c0 0 0.12 0 0.16 0.08 l-0.04 0.12 c0.04 0.12 0.04 0.24 0.12 0.28 c0.16 0 0.44 -0.2 0.44 -0.32 c0 -0.24 -0.52 -0.2 -0.52 -0.6 c0 -0.2 0.2 -0.28 0.28 -0.44 c0.24 0.04 0.12 0.2 0.2 0.32 c0.04 -0.12 0.32 -0.8 0.32 -0.84 s-0.08 -0.04 -0.12 -0.04 c-0.16 0 -0.16 0.12 -0.2 0.16 l-0.04 0 c0.08 -0.2 0.24 -0.64 0.24 -0.8 c0 -0.12 -0.2 -0.16 -0.2 -0.28 s0.24 -0.24 0.44 -0.76 z M25.064000000000004 33.12 c0.28 -0.56 0.4 -1.2 0.92 -1.64 l-0.08 0 c0 -0.04 0.12 -0.16 0.16 -0.16 l0.16 -0.32 c0.24 -0.32 0.48 -0.68 0.6 -1 l-0.08 -0.08 c-0.12 0.08 -1 1.6 -1.84 2.76 c0.04 0.04 0.04 0.08 0.04 0.12 c0 0.12 -0.12 0.16 -0.24 0.24 l0.2 0.16 z M37.304 21.76 l0.12 -0.04 c-0.12 -0.16 -0.12 -0.36 -0.24 -0.52 c-0.24 0.16 -0.04 0.48 -0.4 0.64 l0 0.08 c-0.04 0.08 -0.16 0.2 -0.16 0.28 c0 0.12 0.12 0.44 0.16 0.48 l-0.04 0.2 l0.04 0.08 c0.2 0 0.44 -0.52 0.44 -0.64 c0 -0.08 -0.12 -0.2 -0.2 -0.28 c0.04 -0.12 0.12 -0.28 0.28 -0.28 z M36.784000000000006 23.68 l0 -0.2 s-0.24 -0.24 -0.36 -0.32 l0 0.04 c0 0.08 0 0.12 0.04 0.2 c0 0.08 -0.04 0.2 -0.08 0.24 l0.04 0.08 c0 0.72 -0.52 0.64 -0.52 1.68 c0 0.12 0.04 0.16 0.04 0.28 c0.4 -0.36 0.36 -1.68 0.84 -2 z M24.664 33.519999999999996 c-0.2 0.16 -0.6 0.72 -0.6 0.84 c0 0.2 0.2 0.36 0.2 0.56 c-0.16 0 -0.32 0.08 -0.36 0.2 l-0.12 0 l-0.12 -0.04 c0.12 -0.24 0.64 -1.72 0.8 -1.72 z M34.144000000000005 27.439999999999998 l-0.04 0.04 l-0.12 -0.04 l0 0.08 c0.04 0 0.16 -1.64 0.48 -1.64 c0.04 0 0.04 0.12 0.04 0.16 c0 0.44 -0.32 0.96 -0.36 1.4 z M37.504000000000005 15.8 l-0.2 -0.04 c0.16 -0.36 0.32 -0.92 0.6 -1.24 l0.04 0.08 c0 0.2 -0.36 1 -0.44 1.2 z M33.624 36.6 c0 -0.16 0.12 -0.48 0.16 -0.6 l0.04 0 c0.16 0 0.16 0.12 0.16 0.2 s0 0.6 -0.2 0.6 c-0.08 0 -0.16 -0.04 -0.16 -0.08 l0 -0.12 z M38.024 19 c0 -0.04 -0.04 -0.16 -0.08 -0.2 c-0.08 0.28 -0.32 0.64 -0.32 0.92 l0.04 0 c0.08 0 0.36 -0.6 0.36 -0.72 z M33.664 38.32 c0.04 0.08 0.04 0.16 0.04 0.2 l0 0.4 c-0.12 0 -0.24 -0.12 -0.24 -0.28 s0.08 -0.24 0.16 -0.36 z M35.224000000000004 26.8 l0.32 -0.24 c-0.04 -0.12 -0.16 -0.24 -0.32 -0.24 l-0.08 0.08 c0 0.08 0.08 0.16 0.12 0.2 z M24.944000000000003 35.2 l-0.08 -0.12 l-0.04 0 c-0.12 0 -0.16 0.2 -0.16 0.32 l0.04 0.16 c0.12 -0.12 0.2 -0.24 0.24 -0.36 z M36.784000000000006 17.6 l-0.08 0 c0.04 -0.2 0.08 -0.4 0.24 -0.56 l0.08 0.04 c0 0.2 -0.08 0.4 -0.24 0.52 z M37.104 16.72 l-0.04 0 c0 -0.16 0 -0.44 0.24 -0.44 c-0.04 0.16 0 0.4 -0.2 0.44 z M35.904 23.12 c-0.04 0.08 -0.12 0.16 -0.12 0.28 c0 0.04 0.04 0.08 0.08 0.12 c0.12 -0.04 0.12 -0.2 0.12 -0.32 z M33.784000000000006 37.6 c-0.04 0.2 -0.16 0.32 -0.2 0.52 l-0.04 -0.08 c0 -0.16 0.08 -0.32 0.08 -0.48 c0 0 0.16 0 0.16 0.04 z M33.264 37.2 l-0.04 0 c0.04 -0.12 0.16 -0.12 0.24 -0.12 s0.12 0.04 0.16 0.04 l0.04 0.08 l-0.32 0.04 z M37.42400000000001 20.72 l0.04 -0.08 c-0.08 -0.08 -0.2 -0.12 -0.32 -0.12 l0 0.08 l0.16 0.12 l0.12 0 z M34.144000000000005 33.16 l0.04 0 c-0.04 0.2 -0.04 0.36 -0.04 0.52 c-0.04 0 -0.08 0 -0.08 -0.08 s0.04 -0.4 0.08 -0.44 z M34.504000000000005 25.72 l-0.04 -0.04 c0.04 -0.12 0 -0.32 0.08 -0.48 c0 0.08 0 0.16 0.04 0.2 c0 0.12 0 0.24 -0.08 0.32 z M36.704 20.16 c0 0.08 0.08 0.12 0.12 0.16 l0.12 -0.04 c0 -0.04 0 -0.2 -0.16 -0.2 z M33.784000000000006 42.2 l0 -0.12 l0 -0.12 c-0.04 -0.04 -0.08 -0.04 -0.12 -0.04 c0 0.08 0 0.24 0.04 0.32 z M33.944 34.64 c0 0 0.04 -0.08 0.04 -0.12 c0.12 0 0.08 0.12 0.12 0.16 l-0.32 0.12 z M30.184 32.92 l0.16 -0.16 l0.12 0.12 c-0.08 0.08 -0.2 0.08 -0.24 0.16 z M33.184000000000005 35.36 l-0.08 -0.12 l0.08 -0.16 c0.04 0.04 0.08 0.08 0.08 0.12 z M23.784000000000002 35.8 c0.08 0 0.16 -0.04 0.16 -0.04 l0 -0.12 c-0.08 0 -0.16 0.08 -0.16 0.12 l0 0.04 z M24.464000000000002 35.12 l0.24 0 c-0.04 -0.08 -0.16 -0.16 -0.24 -0.16 l0 0.16 z M32.944 30.16 l-0.04 0 l0.04 -0.16 l0.16 0.04 c0 0.08 -0.04 0.12 -0.16 0.12 z M35.224000000000004 26.96 l0 -0.16 l-0.16 0.04 l0 0.08 c0 0.04 0.08 0.04 0.16 0.04 z M32.024 30.92 c0 -0.12 0 -0.24 0.2 -0.24 c0 0.12 -0.04 0.24 -0.2 0.24 z M29.064000000000004 34.64 l-0.08 -0.16 l-0.12 0.12 l0.04 0.12 z M33.064 31.119999999999997 c0 -0.08 -0.12 -0.16 -0.16 -0.16 l-0.04 0.08 l0.16 0.08 l0.04 0 z M34.464 30.439999999999998 l-0.04 -0.08 l-0.08 0.04 l0 0.16 s0.12 -0.08 0.12 -0.12 z M34.064 34.32 c-0.08 0 -0.08 -0.12 -0.08 -0.16 c0.04 0 0.12 0 0.12 0.08 c0 0.04 0 0.08 -0.04 0.08 z M33.744 35.4 l0.08 0.08 c0 0.08 -0.04 0.08 -0.08 0.12 l-0.08 -0.16 z M26.504 36.76 l-0.08 -0.08 l-0.12 0.04 l0.12 0.12 z M32.824 39.6 l-0.04 -0.04 l0.08 -0.16 l0.04 0.04 z M37.504000000000005 20.32 l0.04 -0.2 l-0.04 -0.04 l-0.04 0.2 z M35.384 29.52 l0 0.16 l-0.12 -0.08 c0 -0.08 0.04 -0.08 0.12 -0.12 l0 0.04 z M37.304 18.48 l0.16 0.08 l0.04 -0.08 l-0.2 0 z M35.904 28.6 l0.04 -0.04 l-0.08 -0.08 l0 0.04 s0 0.08 0.04 0.08 l0 0 z M31.784000000000002 31.28 l-0.12 0.04 c0.04 -0.04 0.04 -0.08 0.08 -0.16 z M32.864000000000004 40.48 c0 0.04 -0.04 0.04 -0.08 0.04 l-0.08 0 c0.04 -0.04 0.04 -0.08 0.08 -0.12 z M33.584 32.76 l-0.04 0.04 l-0.08 -0.08 l0 -0.04 l0 0.04 s0.08 0.04 0.12 0.04 z M33.304 35.44 l0.16 -0.04 l0 0.04 l-0.08 0.04 c-0.04 0 -0.04 -0.04 -0.08 -0.04 z M28.704 34.88 l0.04 -0.08 c-0.08 0 -0.08 0 -0.08 0.04 z M25.144000000000002 34.480000000000004 c0 -0.12 0 -0.08 -0.08 -0.16 c0 0.04 0 0.12 0.04 0.16 l0 0 l0.04 0 z M29.584000000000003 34.480000000000004 l0.04 0 l-0.04 -0.08 l-0.04 0.08 l0.04 0 z M33.184000000000005 35.8 l-0.04 -0.04 c0.04 -0.04 0.04 -0.08 0.04 -0.12 c0 0.04 0 0.12 0.04 0.12 z M34.504000000000005 28.08 l0.08 -0.08 l-0.04 -0.04 c0 0.04 -0.04 0.04 -0.04 0.08 l0 0.04 z M34.824 28.28 c0 -0.04 0.04 -0.04 0.04 -0.04 l-0.08 0 l0 0 s0 0.04 0.04 0.04 z M30.264000000000003 34.6 l0.08 -0.08 l-0.08 -0.04 l0 0.08 l0 0.04 z M34.584 25.2 l-0.04 0 l-0.04 -0.04 l0.04 -0.04 z M33.264 37.48 l-0.08 0.04 c0 -0.04 0 -0.04 0.04 -0.08 z M33.464 41.44 l0.04 0 c0 -0.04 -0.04 0 -0.04 -0.08 l-0.28 0.04 z M32.864000000000004 39.04 l-0.04 0.04 c0 -0.04 0 -0.04 -0.04 -0.04 c0 -0.04 0 -0.04 0.04 -0.04 c0 0.04 0 0.04 0.04 0.04 z M35.744 28.6 l0 0.04 l0.12 -0.04 l-0.12 0 z M36.864000000000004 19.04 l-0.04 -0.04 c0 0.04 0 0.08 0.04 0.08 l0.08 -0.04 l-0.08 0 z M32.784000000000006 39.88 l0.04 -0.08 l0 -0.04 l0 0.04 l0 0.12 c-0.04 0 -0.04 -0.04 -0.04 -0.04 z M32.184000000000005 31.16 l0.04 -0.04 l0 0.12 z M33.144000000000005 40.68 l0 0.04 l-0.04 0 z M27.304000000000002 35.96 l0 0.04 l0.04 -0.04 l-0.04 0 z M36.624 17.84 l0.04 0.04 c-0.04 0 -0.04 -0.04 -0.04 -0.04 l0 0 z M33.784000000000006 29.28 l0 -0.04 l0 0.04 z M50.25600000000001 32.04 l0.16 0.28 c-1.04 1.32 -2.4 2.48 -3.76 3.44 c-0.4 0.28 -1.68 0.8 -1.76 1.2 l0.2 0.08 l-0.32 0.24 l0.04 0.04 c0.52 -0.12 0.8 -0.48 1.24 -0.68 l0.48 0.2 c-0.16 0.16 -0.4 0.36 -0.68 0.52 l0.16 0.12 c-0.36 0.2 -0.68 0.44 -1.04 0.68 c-0.24 0.16 -2.52 0.96 -2.76 0.96 c-2.28 0 -4.12 -1.12 -4.12 -2.8 c0 -1.2 0.08 -2.8 0.72 -3.88 c-0.12 0.12 0.56 -0.68 0.56 -1.24 c0 -1.2 2.8 -4.4 3.6 -5.28 c0.6 -0.68 1.4 -0.88 2.36 -0.88 c1.52 0 2.72 1.12 2.72 2.48 c0 2 -0.76 1.68 -1 2.48 c-0.48 1.48 -3.36 2.84 -4.96 2.84 c-0.24 0 -0.44 -0.04 -0.68 -0.04 c-0.56 0 -0.72 1.76 -1 1.96 l0 0.16 c0 0.44 -0.12 1.44 -0.12 1.8 c0 0.4 0 1.56 0.64 1.56 c3.92 0 5.52 -4.12 8.32 -5.44 c0.32 -0.16 0.96 -0.48 1 -0.8 z M41.656000000000006 31.6 l0 0.16 c0 0.08 0 0.32 0.16 0.32 c0.2 0 0.96 -0.4 1.16 -0.52 c0.44 0 3.12 -2.04 3.16 -2.36 c0.08 -0.48 0.36 -0.96 0.36 -1.44 c0 -0.32 -0.08 -1.76 -0.64 -1.76 c-1.2 0 -2.68 3.56 -3.4 4.08 c-0.16 0.48 -0.44 1.16 -0.8 1.52 z M47.176 27.439999999999998 c-0.12 0 -0.6 0.84 -0.6 0.96 s0.04 0.28 0.16 0.28 c0.24 -0.32 0.44 -0.76 0.52 -1.12 l0.04 -0.08 z M38.816 34.2 c0.04 -0.2 0.16 -0.44 0.28 -0.6 c0 -0.04 0 -0.2 -0.08 -0.2 s-0.2 0.52 -0.28 0.6 c0 0.08 0 0.16 0.08 0.2 z M45.136 37.68 l-0.04 0.04 c0.04 0 0.08 0.04 0.08 0.04 c0.16 0 0.44 -0.2 0.52 -0.24 l-0.04 -0.08 c-0.28 0 -0.32 0.24 -0.52 0.24 z M49.21600000000001 32.6 l0 -0.04 c0.16 -0.16 0.4 -0.28 0.56 -0.44 c-0.04 0.24 -0.36 0.44 -0.56 0.48 z M38.85600000000001 35.4 c0 -0.04 0.12 -0.16 0.12 -0.2 s0 -0.12 -0.04 -0.16 c-0.16 0 -0.2 0.16 -0.2 0.24 s0.08 0.12 0.12 0.12 z M39.25600000000001 32.92 l0.12 -0.16 l-0.04 -0.08 l-0.16 0.08 l0 0.2 z M38.736000000000004 34.56 c0 -0.04 -0.08 -0.16 -0.08 -0.2 l-0.04 0.16 c0 0.08 0 0.12 0.04 0.2 c0.04 -0.04 0.08 -0.08 0.08 -0.16 z M40.29600000000001 30.52 c0 -0.04 -0.04 -0.04 -0.04 -0.08 l-0.16 0.08 l0.04 0.12 z M40.176 30.32 c0.08 -0.04 0.08 -0.12 0.12 -0.16 l-0.04 -0.08 c-0.08 0.08 -0.12 0.12 -0.16 0.24 l0.08 0 z M39.416000000000004 34.92 l0.12 -0.12 l-0.12 -0.04 l0 0.16 z M50.056000000000004 32 l0 0.04 c-0.08 0.04 -0.2 0.04 -0.28 0.08 c0.16 -0.08 0.08 -0.12 0.28 -0.12 z M38.61600000000001 35.12 l0.04 0 c0 -0.04 -0.04 -0.12 -0.08 -0.16 l-0.04 0.16 l0.08 0 z M40.376000000000005 32.96 l0 -0.2 c-0.04 0.08 -0.08 0.12 -0.08 0.24 z M40.53600000000001 30.64 l-0.08 0 l0.04 0.08 c0.04 -0.04 0.08 -0.04 0.08 -0.08 l-0.04 0 z M39.136 33.2 l0.04 0 l-0.04 -0.04 l0.04 0 l-0.04 -0.04 l0 0.08 z M57.92800000000001 15.280000000000001 c0 0.52 -0.84 1.44 -0.84 1.92 c-0.88 1.52 -1.84 4.92 -2.24 6.68 c-0.12 0.52 -0.52 1.2 -0.56 1.68 c0 0.28 -0.2 1.96 -0.52 1.96 c-0.12 0 -0.12 -0.08 -0.12 -0.08 l-0.12 0.12 c0 0.12 0.12 0.12 0.2 0.2 c-0.12 0.52 -0.68 2.08 -0.68 2.64 c0 0.04 0 0.08 0.04 0.12 c-0.12 0.36 -0.2 0.44 -0.2 0.72 c0 0.08 0 0.2 0.04 0.36 l-0.24 0.24 c0 0.12 0.04 0.24 0.04 0.4 c0 0.6 -0.64 2.68 -0.64 3.48 c0 0.12 0 0.2 0.04 0.24 c-0.24 0.2 -0.28 0.56 -0.28 0.88 l0 0.36 c0 0.8 0.04 2.36 0.36 2.84 c0.08 0.16 0.24 0.12 0.32 0.2 c0.16 0.2 0.48 0.8 0.8 0.8 c0.8 0 2 -1.64 2.4 -1.76 l0.04 0.16 c-0.64 1.44 -1.04 2.4 -3.24 2.4 c-2.4 0 -2.96 -2.28 -2.96 -3.64 c0 -0.32 0.04 -0.64 0.04 -0.96 c0 -0.28 -0.04 -0.56 -0.04 -0.84 c0 -0.24 0.28 -0.64 0.32 -0.88 c0.08 -1 0.28 -1.92 0.48 -2.92 l-0.04 -0.04 c0.52 -1.68 1.08 -3.84 1.08 -4.16 c0 -0.6 1.12 -3.64 1.28 -4.68 c0.2 -0.96 0.32 -2.04 0.68 -2.96 c0.44 -1.08 0.68 -0.56 0.96 -2.24 l-0.08 -0.08 c0.12 -0.76 0.44 -1.52 0.72 -2.2 c0.88 -0.6 0.28 -1.92 2.16 -1.92 c0.6 0 0.8 0.48 0.8 0.96 z M50.64800000000001 36.24 l0.08 -0.32 l0.04 0 s-0.04 -0.08 -0.04 -0.12 c0 -1 0.6 -3.88 0.88 -5 l-0.16 0.16 l-0.04 0 c0.04 -0.68 0.52 -1.4 0.72 -2.04 c0.48 -1.8 0.84 -3.56 1.52 -5.32 c0.36 -0.96 0.88 -1.92 1.2 -2.88 c-0.2 0.08 -1.8 3.72 -1.84 4.16 c-0.04 0 -0.04 -0.12 -0.04 -0.16 c0 -0.88 2.12 -5.32 2.44 -7.68 l-0.08 -0.08 c-0.12 0.24 -0.64 1.12 -0.64 1.28 l0.04 0 c-1 2.64 -1.56 5.36 -2.48 8 c-0.12 0.32 -0.2 0.56 -0.24 0.88 c-0.12 0.64 -1.44 5.48 -1.44 5.84 l0 0.04 c-0.44 1.24 -0.68 2.52 -0.68 3.84 c0 0.52 0 1 0.08 1.52 c0 0.04 -0.04 0.12 -0.04 0.12 c0 0.16 0.04 0.28 0.04 0.4 l0.08 -0.2 c0 -0.04 -0.04 -0.08 -0.04 -0.16 c0 -0.36 0.12 -0.76 0.16 -1.12 c0 0.52 0 1.08 0.16 1.56 c0.08 -0.12 0.24 -0.44 0.24 -0.56 c0 -0.2 -0.12 -0.36 -0.12 -0.56 c0 -0.32 0.28 -0.32 0.28 -0.52 c0 -0.16 -0.2 0.04 -0.2 -0.24 c0.2 -0.16 0.2 -0.44 0.32 -0.68 l-0.08 -0.24 z M51.68800000000001 37.24 c0 -0.08 0 -0.12 -0.12 -0.16 l-0.24 0.32 c-0.04 0 -0.12 -0.04 -0.12 -0.08 c-0.2 0 -0.2 0.36 -0.2 0.56 c0 0.12 0 0.24 0 0.2 c0 0.2 0.12 1 0.44 1 c0.12 0 0.12 -0.12 0.12 -0.16 c-0.08 -0.08 -0.08 -0.2 -0.08 -0.28 l0 -0.32 l-0.12 0.04 c-0.08 -0.04 -0.12 -0.12 -0.12 -0.2 s0.36 -0.84 0.44 -0.92 z M51.56800000000001 36.88 l0.16 -0.6 l-0.04 -0.12 c0.04 -0.04 0.04 -0.08 0.04 -0.16 l-0.16 0 c0 -0.16 0.16 -0.2 0.16 -0.28 s-0.24 -0.16 -0.24 -0.52 c-0.16 0 -0.24 0.76 -0.28 0.88 l0 0.36 c0 0.28 0 0.6 0.08 0.6 l0.08 -0.04 c0 -0.12 -0.04 -0.24 -0.08 -0.32 l0.08 -0.08 c0.12 0 0.08 0.16 0.2 0.28 z M51.72800000000001 33.44 l0.16 -0.04 l0 0.12 c0 0.16 -0.24 0.28 -0.28 0.44 l0.04 0.16 c-0.08 0.04 -0.08 0.12 -0.08 0.2 l0.08 0.12 c0.44 -0.4 0.6 -1.04 0.6 -1.4 c0 -0.12 -0.2 -0.16 -0.36 -0.16 c0 0.16 -0.08 0.36 -0.16 0.56 z M52.32800000000001 27.16 l0.12 0.04 c-0.12 0.32 -0.56 2.04 -0.76 2.2 c0.16 -0.8 0.32 -1.48 0.64 -2.24 z M55.168000000000006 18.6 c-0.28 0.08 -0.52 1.16 -0.64 1.44 c0.2 -0.28 0.64 -1.16 0.64 -1.44 z M52.64800000000001 29.92 l0.2 0.08 c0.12 -0.04 0.12 -0.08 0.12 -0.2 s0 -0.28 -0.08 -0.32 c-0.12 0.04 -0.12 0.32 -0.24 0.44 z M53.168000000000006 26 c-0.08 0.24 -0.08 0.52 -0.2 0.72 l0.04 0.08 c0.12 -0.16 0.2 -0.32 0.32 -0.48 c-0.16 -0.12 -0.16 -0.16 -0.16 -0.32 z M50.84800000000001 33.2 c0 -0.32 0 -1 0.36 -1.24 c-0.2 0.36 -0.32 0.88 -0.36 1.24 z M52.28800000000001 29.04 l0.12 0.04 c0.08 -0.12 0.16 -0.32 0.24 -0.4 c-0.08 -0.12 -0.04 -0.24 -0.12 -0.32 c-0.08 0.2 -0.12 0.48 -0.24 0.68 z M52.44800000000001 31.28 l-0.04 0 l0.04 -0.16 l0 -0.04 c-0.2 0.08 -0.32 0.32 -0.36 0.48 l0.04 0.08 c0.12 -0.08 0.2 -0.2 0.32 -0.36 z M50.84800000000001 35.36 l0.04 0.16 c0.12 -0.08 0.2 -0.24 0.2 -0.4 c0 0 0 -0.12 -0.08 -0.12 c-0.12 0.12 -0.16 0.24 -0.16 0.36 z M50.80800000000001 33.44 l0.04 0.16 c-0.04 0.12 -0.12 0.24 -0.16 0.36 c0 0.04 0.04 0.08 0.04 0.16 c0 0.04 -0.04 0.08 -0.04 0.08 c-0.04 -0.04 -0.04 -0.12 -0.04 -0.2 c0 -0.12 0.04 -0.48 0.16 -0.56 z M53.64800000000001 24.439999999999998 c-0.12 0 -0.16 0.32 -0.16 0.4 c0 0.04 0.04 0.12 0.12 0.16 l0.16 -0.08 c-0.12 0 -0.12 -0.2 -0.12 -0.32 l0 -0.16 z M53.04800000000001 28.92 l-0.04 -0.16 c-0.12 0 -0.24 0.24 -0.24 0.32 c0.16 0 0.24 -0.04 0.28 -0.16 z M51.76800000000001 32.64 l-0.04 -0.04 c-0.12 0.08 -0.16 0.2 -0.16 0.32 c0.08 0 0.16 -0.2 0.2 -0.28 z M51.72800000000001 33.44 l-0.08 0 c-0.08 0 -0.24 0 -0.28 0.08 c0.04 0 0.2 0.08 0.24 0.08 c0.12 0 0.08 -0.08 0.12 -0.16 z M52.76800000000001 30.560000000000002 l0.08 -0.04 l-0.08 -0.24 l-0.16 0.2 c0 0.08 0.08 0.08 0.12 0.08 l0.04 0 z M51.40800000000001 34.92 l0.16 0.12 l0.08 -0.24 l-0.04 -0.04 z M51.88800000000001 34.72 l-0.16 0.12 l0 0.04 c0 0.04 0.04 0.08 0.12 0.08 l0.16 -0.16 z M51.76800000000001 34.480000000000004 l0.08 0.12 l0.08 -0.12 l-0.08 -0.16 z M53.96800000000001 23.52 l-0.2 0.4 l0.04 0 c0.08 0 0.16 -0.32 0.16 -0.4 z M53.168000000000006 28.32 l-0.08 -0.08 c-0.04 0 -0.08 0.08 -0.12 0.12 l0.16 0.04 z M53.52800000000001 25.2 l-0.04 0 c-0.08 0 -0.12 0.04 -0.12 0.16 l0.04 0 c0.08 0 0.08 -0.08 0.12 -0.16 z M52.92800000000001 25.32 l-0.04 -0.16 l0.08 -0.12 c0 0.04 -0.04 0.24 -0.04 0.28 z M50.84800000000001 38.52 l-0.08 0.08 l0.08 0.04 l0.08 0 z M52.12800000000001 29.92 l0.08 -0.08 l-0.08 -0.08 c-0.04 0.04 -0.04 0.08 -0.04 0.08 z M52.44800000000001 26.759999999999998 c0 0.04 0 0.16 -0.12 0.2 l-0.04 0 c0.04 -0.08 0.12 -0.16 0.16 -0.2 z M52.44800000000001 32.2 l-0.04 -0.16 l0 0.2 z M51.56800000000001 32.44 l-0.12 0.12 l0.04 0.04 c0.08 0 0.08 -0.04 0.08 -0.04 l0 -0.12 z M51.88800000000001 40.96 l-0.04 -0.08 c-0.04 0.04 -0.12 0.04 -0.12 0.12 l0.08 0.04 z M51.56800000000001 38 l-0.08 -0.08 l-0.08 0.12 c0.04 0 0.16 -0.04 0.16 -0.04 z M53.40800000000001 26.08 l0.04 -0.08 l0 -0.04 l-0.12 0.04 z M52.44800000000001 31.6 l0.08 0 l-0.08 -0.04 l0 0.04 z M52.12800000000001 32.32 c-0.04 0 -0.04 0 -0.04 0.08 l0 0 c0.04 0 0.04 -0.04 0.04 -0.08 z M53.08800000000001 28 c0.04 0 0.04 0.04 0.04 0.08 l0.08 -0.04 c-0.04 -0.04 -0.08 -0.04 -0.12 -0.04 z M52.488000000000014 30.32 c0.04 0.04 0.04 0.04 0.08 0.04 c0 -0.04 0 -0.04 0.04 -0.04 l-0.12 0 z M51.28800000000001 39.56 c-0.04 0.04 -0.04 0.04 -0.04 0.08 l0.04 0 l-0.04 0 c0 -0.04 0.04 -0.04 0.04 -0.08 z M50.24800000000001 37.04 c0 0.16 0 0.24 -0.08 0.36 c0.08 -0.12 0.08 -0.2 0.08 -0.36 z M52.60800000000001 30.96 l0 0.04 l0.04 -0.04 l-0.04 0 l0 0 z M51.20800000000001 39.32 c0 0.04 0 0.04 0.04 0.04 l0.04 -0.04 c-0.04 0 -0.04 0 -0.04 -0.04 c-0.04 0 -0.04 0 -0.04 0.04 z M53.40800000000001 27.119999999999997 l-0.04 0 c0.04 0 0.04 0 0.04 0.04 c0.04 0 0.04 0 0.04 -0.04 l-0.04 0 z M52.76800000000001 29.32 l0 -0.04 c-0.04 0.04 -0.04 0.04 -0.04 0.08 l0.04 -0.04 l0 0 z M51.44800000000001 33.84 l-0.04 0 l0 0.04 c0.04 0 0.04 0 0.04 -0.04 z M52.76800000000001 27.6 l0 0.08 l0 -0.08 z M50.56800000000001 36.76 l0 -0.04 l0.08 0 c0 0.04 0 0 -0.08 0.04 z M51.56800000000001 40.28 l-0.08 0.08 c0.08 0 0.08 -0.04 0.08 -0.04 l0 0 l-0.08 0 s0.08 0 0.08 -0.04 z">
        </path>
    </g>
    <g id="SvgjsG2835" featurekey="sloganFeature-0"
        transform="matrix(2.054825270696504,0,0,2.054825270696504,87.99999926513722,240.94503784886263)" fill="#ffffff">
        <path
            d="M4.26 19.92 l-2.1 -7.88 l-0.3 0.5 l0 7.44 l-1.86 0 l0 -14.26 l1.86 0 l0 3.1 l1.24 -3.1 l2.3 0 l-1.9 4.12 l2.7 10.08 l-1.94 0 z M10.660499999999999 20.02 c-1.5 0 -2.7 -1.22 -2.7 -2.7 l0 -8.98 c0 -1.48 1.2 -2.68 2.7 -2.68 c1.48 0 2.68 1.2 2.68 2.68 l0 8.98 c0 1.48 -1.2 2.7 -2.68 2.7 z M10.660499999999999 7.5600000000000005 c-0.44 0 -0.78 0.36 -0.78 0.78 l0 8.98 c0 0.44 0.34 0.78 0.78 0.78 c0.42 0 0.78 -0.34 0.78 -0.78 l0 -8.98 c0 -0.42 -0.36 -0.78 -0.78 -0.78 z M17.000999999999998 17 l0 2.98 l-1.9 0 l0 -14.26 l2.96 0 c1.32 0 2.38 1.08 2.38 2.4 l0 6.5 c0 1.32 -1.06 2.38 -2.38 2.38 l-1.06 0 z M17.000999999999998 7.619999999999999 l0 7.48 l1.06 0 c0.28 0 0.48 -0.2 0.48 -0.48 l0 -6.5 c0 -0.28 -0.2 -0.5 -0.48 -0.5 l-1.06 0 z M26.8615 12.46 l-2.76 0 l0 5.64 l2.78 0 l0 1.9 l-4.68 0 l0 -14.28 l4.68 0 l0 1.9 l-2.78 0 l0 2.94 l2.76 0 l0 1.9 z M34.122 20.04 l-2.04 0 l-1.1 -3.02 l-0.44 0 l0 3.02 l-1.9 0 l0 -14.32 l2.98 0 c1.32 0 2.38 1.06 2.38 2.38 l0 6.54 c0 0.86 -0.44 1.6 -1.12 2.02 z M30.541999999999998 7.619999999999999 l0 7.5 l1.08 0 c0.26 0 0.48 -0.22 0.48 -0.48 l0 -6.54 c0 -0.26 -0.22 -0.48 -0.48 -0.48 l-1.08 0 z M40.8825 20 l-0.72 -4.94 l-2.02 0 l-0.66 4.94 l-1.92 0 l2.16 -14.3 l2.58 0 l2.5 14.3 l-1.92 0 z M38.4025 13.16 l1.48 0 l-0.76 -5.2 z M46.563 20.12 c-1.52 0 -2.74 -1.24 -2.74 -2.74 l0 -2.18 l1.94 0 l0 2.18 c0 0.44 0.36 0.8 0.8 0.8 s0.78 -0.36 0.78 -0.8 l0 -1.9 l-3.52 -4.86 l0 -2.48 c0 -1.52 1.22 -2.76 2.74 -2.76 c1.5 0 2.72 1.24 2.72 2.76 l0 2.16 l-1.94 0 l0 -2.16 c0 -0.46 -0.34 -0.8 -0.78 -0.8 s-0.8 0.34 -0.8 0.8 l0 1.82 l3.52 4.86 l0 2.56 c0 1.5 -1.22 2.74 -2.72 2.74 z M52.9435 5.68 l0 14.24 l-1.9 0 l0 -14.24 l1.9 0 z M61.9645 20.02 l-2.5 0 l0 -14.26 l2.5 0 c1.7 0 3.06 1.38 3.06 3.08 l0 8.1 c0 0.82 -0.32 1.6 -0.9 2.18 s-1.34 0.9 -2.16 0.9 z M61.3645 7.68 l0 10.42 l0.6 0 c0.3 0 0.6 -0.12 0.82 -0.34 s0.34 -0.5 0.34 -0.82 l0 -8.1 c0 -0.64 -0.52 -1.16 -1.16 -1.16 l-0.6 0 z M71.445 12.46 l-2.76 0 l0 5.64 l2.78 0 l0 1.9 l-4.68 0 l0 -14.28 l4.68 0 l0 1.9 l-2.78 0 l0 2.94 l2.76 0 l0 1.9 z M75.10549999999999 18.12 l2.76 0 l0 1.88 l-4.64 0 l0 -14.36 l1.88 0 l0 12.48 z">
        </path>
    </g>
</svg>